<svg xmlns="http://www.w3.org/2000/svg" xmlns:xlink="http://www.w3.org/1999/xlink" viewBox="0 0 238.41 236.94"><defs><clipPath id="a" transform="translate(-83 -768.31)"><rect width="1200" height="1200" style="fill:none"/></clipPath><clipPath id="b" transform="translate(-83 -768.31)"><path d="M203.24,843.17C188.36,843.17,186,851,186,851v14.48h.63c2.88-2.27,9.24-3.84,16.61-3.84h0a41.14,41.14,0,0,1,12,1.63l.05,0,.42.14.08,0,.37.13.12,0,.32.12.19.08.24.1.22.09.19.08.23.11.17.08.31.15.07,0a10.18,10.18,0,0,1,1.6,1h.63V851a3.25,3.25,0,0,0-.12-.33h0c-.6-1.5-3.84-7.47-17.11-7.48Z" style="fill:none"/></clipPath><linearGradient id="c" y1="1200" x2="1" y2="1200" gradientTransform="matrix(34.48, 0, 0, -34.48, 102.99, 41464.47)" gradientUnits="userSpaceOnUse"><stop offset="0" stop-color="#7bd8a0"/><stop offset="1" stop-color="#8fffba"/></linearGradient><clipPath id="d" transform="translate(-83 -768.31)"><polyline points="186 850.99 186 865.47 186 850.99" style="fill:none"/></clipPath><linearGradient id="e" x1="186" y1="858.23" x2="186" y2="858.23" gradientTransform="matrix(0, 0, 0, 0, 102.99, 87.22)" xlink:href="#c"/><clipPath id="f" transform="translate(-83 -768.31)"><path d="M186,851v14.48h.63l.3-.23v-16A6.56,6.56,0,0,0,186,851" style="fill:none"/></clipPath><linearGradient id="g" x1="0" y1="1196.73" x2="1" y2="1196.73" gradientTransform="matrix(0.93, 0, 0, -0.93, 102.99, 1204.35)" xlink:href="#c"/><clipPath id="h" transform="translate(-83 -768.31)"><path d="M186.93,849.27v16a10,10,0,0,1,.93-.59v-16.5a10.27,10.27,0,0,0-.93,1.12" style="fill:none"/></clipPath><linearGradient id="i" x1="0" y1="1197.45" x2="1" y2="1197.45" gradientTransform="matrix(0.93, 0, 0, -0.93, 103.92, 1204.35)" xlink:href="#c"/><clipPath id="j" transform="translate(-83 -768.31)"><path d="M187.86,848.15v16.5q.44-.25.93-.47v-16.9a12,12,0,0,0-.93.87" style="fill:none"/></clipPath><linearGradient id="k" x1="0" y1="1198.23" x2="1" y2="1198.23" gradientTransform="matrix(0.93, 0, 0, -0.93, 104.86, 1204.35)" xlink:href="#c"/><clipPath id="l" transform="translate(-83 -768.31)"><path d="M188.79,847.28v16.9c.3-.14.61-.27.93-.4V846.57c-.34.24-.65.48-.93.71" style="fill:none"/></clipPath><linearGradient id="m" x1="0" y1="1198.87" x2="1" y2="1198.87" gradientTransform="matrix(0.93, 0, 0, -0.93, 105.79, 1204.35)" xlink:href="#c"/><clipPath id="n" transform="translate(-83 -768.31)"><path d="M189.73,846.57v17.21l.93-.34V846c-.33.2-.64.39-.93.6" style="fill:none"/></clipPath><linearGradient id="o" x1="0" y1="1199.4" x2="1" y2="1199.4" gradientTransform="matrix(0.93, 0, 0, -0.93, 106.72, 1204.35)" xlink:href="#c"/><clipPath id="p" transform="translate(-83 -768.31)"><path d="M190.66,846v17.46l.93-.3V845.47c-.33.16-.64.33-.93.5" style="fill:none"/></clipPath><linearGradient id="q" x1="0" y1="1199.86" x2="1" y2="1199.86" gradientTransform="matrix(0.93, 0, 0, -0.93, 107.65, 1204.35)" xlink:href="#c"/><clipPath id="r" transform="translate(-83 -768.31)"><path d="M191.59,845.47v17.67l.93-.26V845q-.49.21-.93.43" style="fill:none"/></clipPath><linearGradient id="s" x1="0" y1="1200.25" x2="1" y2="1200.25" gradientTransform="matrix(0.93, 0, 0, -0.93, 108.58, 1204.35)" xlink:href="#c"/><clipPath id="t" transform="translate(-83 -768.31)"><path d="M192.52,845v17.84l.93-.23v-18l-.93.37" style="fill:none"/></clipPath><linearGradient id="u" x1="0" y1="1200.59" x2="1" y2="1200.59" gradientTransform="matrix(0.93, 0, 0, -0.93, 109.52, 1204.35)" xlink:href="#c"/><clipPath id="v" transform="translate(-83 -768.31)"><path d="M193.45,844.67v18l.93-.2V844.36l-.93.31" style="fill:none"/></clipPath><linearGradient id="w" x1="0" y1="1200.88" x2="1" y2="1200.88" gradientTransform="matrix(0.93, 0, 0, -0.93, 110.45, 1204.35)" xlink:href="#c"/><clipPath id="x" transform="translate(-83 -768.31)"><path d="M194.38,844.36v18.09l.93-.17V844.09l-.93.27" style="fill:none"/></clipPath><linearGradient id="y" x1="0" y1="1201.13" x2="1" y2="1201.13" gradientTransform="matrix(0.93, 0, 0, -0.93, 111.38, 1204.35)" xlink:href="#c"/><clipPath id="z" transform="translate(-83 -768.31)"><path d="M195.32,844.09v18.19l.93-.15V843.87l-.93.22" style="fill:none"/></clipPath><linearGradient id="aa" x1="0" y1="1201.34" x2="1" y2="1201.34" gradientTransform="matrix(0.93, 0, 0, -0.93, 112.31, 1204.35)" xlink:href="#c"/><clipPath id="ab" transform="translate(-83 -768.31)"><path d="M196.25,843.87v18.26l.93-.13V843.68l-.93.19" style="fill:none"/></clipPath><linearGradient id="ac" x1="0" y1="1201.52" x2="1" y2="1201.52" gradientTransform="matrix(0.93, 0, 0, -0.93, 113.24, 1204.35)" xlink:href="#c"/><clipPath id="ad" transform="translate(-83 -768.31)"><path d="M197.18,843.68V862l.93-.11V843.53l-.93.15" style="fill:none"/></clipPath><linearGradient id="ae" x1="0" y1="1201.67" x2="1" y2="1201.67" gradientTransform="matrix(0.93, 0, 0, -0.93, 114.18, 1204.35)" xlink:href="#c"/><clipPath id="af" transform="translate(-83 -768.31)"><path d="M198.11,843.53v18.36l.93-.09V843.4l-.93.12" style="fill:none"/></clipPath><linearGradient id="ag" x1="0" y1="1201.8" x2="1" y2="1201.8" gradientTransform="matrix(0.93, 0, 0, -0.93, 115.11, 1204.35)" xlink:href="#c"/><clipPath id="ah" transform="translate(-83 -768.31)"><path d="M199,843.4v18.4l.93-.07V843.31l-.93.09" style="fill:none"/></clipPath><linearGradient id="ai" x1="0" y1="1201.9" x2="1" y2="1201.9" gradientTransform="matrix(0.93, 0, 0, -0.93, 116.04, 1204.35)" xlink:href="#c"/><clipPath id="aj" transform="translate(-83 -768.31)"><path d="M200,843.31v18.42l.93-.05V843.24l-.93.07" style="fill:none"/></clipPath><linearGradient id="ak" x1="0" y1="1201.97" x2="1" y2="1201.97" gradientTransform="matrix(0.93, 0, 0, -0.93, 116.97, 1204.35)" xlink:href="#c"/><clipPath id="al" transform="translate(-83 -768.31)"><path d="M200.91,843.24v18.44l.93,0V843.2l-.93,0" style="fill:none"/></clipPath><linearGradient id="am" x1="0" y1="1202.02" x2="1" y2="1202.02" gradientTransform="matrix(0.93, 0, 0, -0.93, 117.9, 1204.35)" xlink:href="#c"/><clipPath id="an" transform="translate(-83 -768.31)"><path d="M201.84,843.2v18.45l.93,0V843.18l-.93,0" style="fill:none"/></clipPath><linearGradient id="ao" x1="0" y1="1202.05" x2="1" y2="1202.05" gradientTransform="matrix(0.93, 0, 0, -0.93, 118.84, 1204.35)" xlink:href="#c"/><clipPath id="ap" transform="translate(-83 -768.31)"><path d="M203.24,843.17h-.47v18.45h.93V843.18h-.46Z" style="fill:none"/></clipPath><linearGradient id="aq" x1="0" y1="1202.06" x2="1" y2="1202.06" gradientTransform="matrix(0.93, 0, 0, -0.93, 119.77, 1204.35)" xlink:href="#c"/><clipPath id="ar" transform="translate(-83 -768.31)"><path d="M203.7,861.63l.93,0V843.2l-.93,0Z" style="fill:none"/></clipPath><linearGradient id="as" x1="0" y1="1202.05" x2="1" y2="1202.05" gradientTransform="matrix(0.93, 0, 0, -0.93, 120.7, 1204.35)" xlink:href="#c"/><clipPath id="at" transform="translate(-83 -768.31)"><path d="M204.64,861.65l.93,0V843.24l-.93,0Z" style="fill:none"/></clipPath><linearGradient id="au" x1="0" y1="1202.02" x2="1" y2="1202.02" gradientTransform="matrix(0.93, 0, 0, -0.93, 121.63, 1204.35)" xlink:href="#c"/><clipPath id="av" transform="translate(-83 -768.31)"><path d="M205.57,861.68l.93.05V843.3l-.93-.07Z" style="fill:none"/></clipPath><linearGradient id="aw" x1="0" y1="1201.97" x2="1" y2="1201.97" gradientTransform="matrix(0.93, 0, 0, -0.93, 122.56, 1204.35)" xlink:href="#c"/><clipPath id="ax" transform="translate(-83 -768.31)"><path d="M206.5,861.73l.93.07V843.39l-.93-.09Z" style="fill:none"/></clipPath><linearGradient id="ay" x1="0" y1="1201.9" x2="1" y2="1201.9" gradientTransform="matrix(0.93, 0, 0, -0.93, 123.5, 1204.35)" xlink:href="#c"/><clipPath id="az" transform="translate(-83 -768.31)"><path d="M207.43,861.8l.93.09V843.51l-.93-.12Z" style="fill:none"/></clipPath><linearGradient id="ba" x1="0" y1="1201.8" x2="1" y2="1201.8" gradientTransform="matrix(0.93, 0, 0, -0.93, 124.43, 1204.35)" xlink:href="#c"/><clipPath id="bb" transform="translate(-83 -768.31)"><path d="M208.36,861.89l.93.11V843.66l-.93-.15Z" style="fill:none"/></clipPath><linearGradient id="bc" x1="0" y1="1201.68" x2="1" y2="1201.68" gradientTransform="matrix(0.93, 0, 0, -0.93, 125.36, 1204.35)" xlink:href="#c"/><clipPath id="bd" transform="translate(-83 -768.31)"><path d="M209.29,862l.93.13V843.84l-.93-.18Z" style="fill:none"/></clipPath><linearGradient id="be" x1="0" y1="1201.53" x2="1" y2="1201.53" gradientTransform="matrix(0.93, 0, 0, -0.93, 126.29, 1204.35)" xlink:href="#c"/><clipPath id="bf" transform="translate(-83 -768.31)"><path d="M210.23,862.13l.93.15V844.06l-.93-.22Z" style="fill:none"/></clipPath><linearGradient id="bg" x1="0" y1="1201.36" x2="1" y2="1201.36" gradientTransform="matrix(0.93, 0, 0, -0.93, 127.22, 1204.35)" xlink:href="#c"/><clipPath id="bh" transform="translate(-83 -768.31)"><path d="M211.16,862.28l.93.17V844.32l-.93-.26Z" style="fill:none"/></clipPath><linearGradient id="bi" x1="0" y1="1201.15" x2="1" y2="1201.15" gradientTransform="matrix(0.93, 0, 0, -0.93, 128.16, 1204.35)" xlink:href="#c"/><clipPath id="bj" transform="translate(-83 -768.31)"><path d="M212.09,862.45l.93.2v-18l-.93-.3Z" style="fill:none"/></clipPath><linearGradient id="bk" x1="0" y1="1200.9" x2="1" y2="1200.9" gradientTransform="matrix(0.93, 0, 0, -0.93, 129.09, 1204.35)" xlink:href="#c"/><clipPath id="bl" transform="translate(-83 -768.31)"><path d="M213,862.65l.93.23V845l-.93-.36Z" style="fill:none"/></clipPath><linearGradient id="bm" x1="0" y1="1200.61" x2="1" y2="1200.61" gradientTransform="matrix(0.93, 0, 0, -0.93, 130.02, 1204.35)" xlink:href="#c"/><clipPath id="bn" transform="translate(-83 -768.31)"><path d="M214,862.88l.93.26V845.4c-.3-.14-.61-.28-.93-.42Z" style="fill:none"/></clipPath><linearGradient id="bo" x1="0" y1="1200.28" x2="1" y2="1200.28" gradientTransform="matrix(0.93, 0, 0, -0.93, 130.95, 1204.35)" xlink:href="#c"/><clipPath id="bp" transform="translate(-83 -768.31)"><path d="M214.89,863.14l.39.12.05,0,.42.14.07,0V845.89q-.44-.25-.93-.49Z" style="fill:none"/></clipPath><linearGradient id="bq" x1="0" y1="1199.9" x2="1" y2="1199.9" gradientTransform="matrix(0.93, 0, 0, -0.93, 131.88, 1204.35)" xlink:href="#c"/><clipPath id="br" transform="translate(-83 -768.31)"><path d="M215.82,863.44h0l.37.13.12,0,.32.12.1,0v-17.3q-.43-.3-.93-.59Z" style="fill:none"/></clipPath><linearGradient id="bs" x1="0" y1="1199.45" x2="1" y2="1199.45" gradientTransform="matrix(0.93, 0, 0, -0.93, 132.82, 1204.35)" xlink:href="#c"/><clipPath id="bt" transform="translate(-83 -768.31)"><path d="M216.75,863.78l.08,0,.24.1.22.09.19.08.2.09v-17c-.28-.23-.59-.47-.93-.7Z" style="fill:none"/></clipPath><linearGradient id="bu" x1="0" y1="1198.92" x2="1" y2="1198.92" gradientTransform="matrix(0.93, 0, 0, -0.93, 133.75, 1204.35)" xlink:href="#c"/><clipPath id="bv" transform="translate(-83 -768.31)"><path d="M217.68,864.18h0l.17.08.31.15.07,0,.36.19v-16.6a11.11,11.11,0,0,0-.93-.87Z" style="fill:none"/></clipPath><linearGradient id="bw" x1="0" y1="1198.29" x2="1" y2="1198.29" gradientTransform="matrix(0.93, 0, 0, -0.93, 134.68, 1204.35)" xlink:href="#c"/><clipPath id="bx" transform="translate(-83 -768.31)"><path d="M218.62,864.66a10.25,10.25,0,0,1,.93.59V849.18a9.73,9.73,0,0,0-.93-1.13Z" style="fill:none"/></clipPath><linearGradient id="by" x1="0" y1="1197.5" x2="1" y2="1197.5" gradientTransform="matrix(0.93, 0, 0, -0.93, 135.61, 1204.35)" xlink:href="#c"/><clipPath id="bz" transform="translate(-83 -768.31)"><path d="M219.55,865.24l.3.23h.63V851a3.25,3.25,0,0,0-.12-.33h0a7.41,7.41,0,0,0-.81-1.46Z" style="fill:none"/></clipPath><linearGradient id="ca" x1="0" y1="1196.77" x2="1" y2="1196.77" gradientTransform="matrix(0.93, 0, 0, -0.93, 136.54, 1204.35)" xlink:href="#c"/><clipPath id="cc" transform="translate(-83 -768.31)"><path d="M220.48,865.47v0Z" style="fill:none"/></clipPath><linearGradient id="cd" x1="220.48" y1="854.32" x2="220.48" y2="854.32" gradientTransform="matrix(0, 0, 0, 0, 137.47, 87.22)" xlink:href="#c"/><clipPath id="cf" transform="translate(-83 -768.31)"><path d="M189,799.21a88.82,88.82,0,1,0,29.68,175.15,89.21,89.21,0,0,0,64.52-47.68,8.22,8.22,0,0,0-14.68-7.39,72.72,72.72,0,0,1-52.59,38.87,72.39,72.39,0,1,1,59.28-83.47,8.22,8.22,0,0,0,16.2-2.75,88.88,88.88,0,0,0-87.38-74,89.9,89.9,0,0,0-15,1.27" style="fill:none"/></clipPath><linearGradient id="cg" x1="0" y1="1200" x2="1" y2="1200" gradientTransform="matrix(177.65, 0, 0, -177.65, 114.96, 214063.18)" xlink:href="#c"/></defs><title>consulta</title><g style="clip-path:url(#a)"><path d="M189.29,898.35l14,10.69,13.14-10.69S227.8,897.26,234,909l.89,20.53H171.4s-7.32-30.22,17.89-31.22" transform="translate(-83 -768.31)" style="fill:#858585"/><path d="M203.24,891.94c-7.93,0-14.09-6.06-17.21-11.72l0-.06,0-.09a17,17,0,0,1-1.38-3.83c-.2-.8-.38-1.65-.54-2.53-1-5.92-1.53-17.66,3.25-24.15,4.61-6.25,12-6,16-4.79,4-1.19,11.36-1.46,16,4.79,4.43,6,4.12,16,3.77,20a2.6,2.6,0,0,1-5.17-.44c.6-7-.47-13.37-2.78-16.52-3.87-5.26-10.57-2.81-10.86-2.71a2.56,2.56,0,0,1-1.87,0c-.27-.1-7-2.55-10.85,2.71-3.11,4.22-3.51,13.34-2.31,20.17.13.76.29,1.48.46,2.16a11.79,11.79,0,0,0,.92,2.64l.07.13c2.3,4.16,7,9,12.65,9a12.09,12.09,0,0,0,7.63-3,20.9,20.9,0,0,0,4.1-4.53,2.6,2.6,0,0,1,4.31,2.9,26.09,26.09,0,0,1-5.15,5.67,17.36,17.36,0,0,1-10.89,4.14" transform="translate(-83 -768.31)" style="fill:#858585"/></g><g style="clip-path:url(#b)"><rect x="102.99" y="74.87" width="34.48" height="22.3" style="fill:url(#c)"/></g><g style="clip-path:url(#d)"><polygon points="102.99 82.68 102.99 82.68 102.99 97.17 102.99 82.68" style="fill:url(#e)"/></g><g style="clip-path:url(#f)"><rect x="102.99" y="80.97" width="0.93" height="16.2" style="fill:url(#g)"/></g><g style="clip-path:url(#h)"><rect x="103.92" y="79.85" width="0.93" height="17.09" style="fill:url(#i)"/></g><g style="clip-path:url(#j)"><rect x="104.86" y="78.98" width="0.93" height="17.38" style="fill:url(#k)"/></g><g style="clip-path:url(#l)"><rect x="105.79" y="78.26" width="0.93" height="17.61" style="fill:url(#m)"/></g><g style="clip-path:url(#n)"><rect x="106.72" y="77.67" width="0.93" height="17.81" style="fill:url(#o)"/></g><g style="clip-path:url(#p)"><rect x="107.65" y="77.16" width="0.93" height="17.97" style="fill:url(#q)"/></g><g style="clip-path:url(#r)"><rect x="108.58" y="76.73" width="0.93" height="18.1" style="fill:url(#s)"/></g><g style="clip-path:url(#t)"><rect x="109.52" y="76.37" width="0.93" height="18.21" style="fill:url(#u)"/></g><g style="clip-path:url(#v)"><rect x="110.45" y="76.05" width="0.93" height="18.29" style="fill:url(#w)"/></g><g style="clip-path:url(#x)"><rect x="111.38" y="75.78" width="0.93" height="18.36" style="fill:url(#y)"/></g><g style="clip-path:url(#z)"><rect x="112.31" y="75.56" width="0.93" height="18.41" style="fill:url(#aa)"/></g><g style="clip-path:url(#ab)"><rect x="113.24" y="75.37" width="0.93" height="18.45" style="fill:url(#ac)"/></g><g style="clip-path:url(#ad)"><rect x="114.18" y="75.22" width="0.93" height="18.47" style="fill:url(#ae)"/></g><g style="clip-path:url(#af)"><rect x="115.11" y="75.1" width="0.93" height="18.49" style="fill:url(#ag)"/></g><g style="clip-path:url(#ah)"><rect x="116.04" y="75" width="0.93" height="18.49" style="fill:url(#ai)"/></g><g style="clip-path:url(#aj)"><rect x="116.97" y="74.93" width="0.93" height="18.49" style="fill:url(#ak)"/></g><g style="clip-path:url(#al)"><rect x="117.9" y="74.89" width="0.93" height="18.48" style="fill:url(#am)"/></g><g style="clip-path:url(#an)"><rect x="118.83" y="74.87" width="0.93" height="18.47" style="fill:url(#ao)"/></g><g style="clip-path:url(#ap)"><rect x="119.77" y="74.87" width="0.93" height="18.46" style="fill:url(#aq)"/></g><g style="clip-path:url(#ar)"><rect x="120.7" y="74.87" width="0.93" height="18.47" style="fill:url(#as)"/></g><g style="clip-path:url(#at)"><rect x="121.63" y="74.89" width="0.93" height="18.48" style="fill:url(#au)"/></g><g style="clip-path:url(#av)"><rect x="122.56" y="74.93" width="0.93" height="18.49" style="fill:url(#aw)"/></g><g style="clip-path:url(#ax)"><rect x="123.5" y="75" width="0.93" height="18.5" style="fill:url(#ay)"/></g><g style="clip-path:url(#az)"><rect x="124.43" y="75.09" width="0.93" height="18.5" style="fill:url(#ba)"/></g><g style="clip-path:url(#bb)"><rect x="125.36" y="75.21" width="0.93" height="18.49" style="fill:url(#bc)"/></g><g style="clip-path:url(#bd)"><rect x="126.29" y="75.35" width="0.93" height="18.47" style="fill:url(#be)"/></g><g style="clip-path:url(#bf)"><rect x="127.22" y="75.53" width="0.93" height="18.44" style="fill:url(#bg)"/></g><g style="clip-path:url(#bh)"><rect x="128.16" y="75.75" width="0.93" height="18.39" style="fill:url(#bi)"/></g><g style="clip-path:url(#bj)"><rect x="129.09" y="76.01" width="0.93" height="18.34" style="fill:url(#bk)"/></g><g style="clip-path:url(#bl)"><rect x="130.02" y="76.31" width="0.93" height="18.26" style="fill:url(#bm)"/></g><g style="clip-path:url(#bn)"><rect x="130.95" y="76.67" width="0.93" height="18.16" style="fill:url(#bo)"/></g><g style="clip-path:url(#bp)"><rect x="131.88" y="77.09" width="0.93" height="18.04" style="fill:url(#bq)"/></g><g style="clip-path:url(#br)"><rect x="132.82" y="77.59" width="0.93" height="17.89" style="fill:url(#bs)"/></g><g style="clip-path:url(#bt)"><rect x="133.75" y="78.17" width="0.93" height="17.7" style="fill:url(#bu)"/></g><g style="clip-path:url(#bv)"><rect x="134.68" y="78.88" width="0.93" height="17.47" style="fill:url(#bw)"/></g><g style="clip-path:url(#bx)"><rect x="135.61" y="79.75" width="0.93" height="17.19" style="fill:url(#by)"/></g><g style="clip-path:url(#bz)"><rect x="136.54" y="80.88" width="0.93" height="16.29" style="fill:url(#ca)"/></g><g style="clip-path:url(#b)"><g style="clip-path:url(#cc)"><polygon points="137.47 74.87 137.47 74.87 137.47 97.17 137.47 74.87" style="fill:url(#cd)"/></g></g><g style="clip-path:url(#a)"><path d="M220.48,868.07h-.63a2.59,2.59,0,0,1-1.6-.56,7.7,7.7,0,0,0-1.19-.75l0,0-.26-.13-1-.45-.25-.1-.13-.05-.33-.12-.07,0-.38-.12-.06,0a38.69,38.69,0,0,0-11.23-1.51h0c-7.45,0-12.9,1.65-15,3.29a2.59,2.59,0,0,1-1.6.55H186a2.6,2.6,0,0,1-2.6-2.6V851a2.62,2.62,0,0,1,.11-.75c.12-.39,3.11-9.66,19.73-9.66h0c14.69,0,18.64,7,19.5,9.1h0a5.78,5.78,0,0,1,.22.64,2.57,2.57,0,0,1,.09.66v14.48a2.6,2.6,0,0,1-2.6,2.6m-31.89-16.58v10A40.56,40.56,0,0,1,203.24,859h0a43.92,43.92,0,0,1,12.78,1.75l.07,0,.46.15.08,0,.43.15.14.05h0l.33.13.16.06.11,0h0v-10c-.58-1.25-3.41-5.69-14.63-5.69h0c-11.08,0-14.06,4.58-14.63,5.72" transform="translate(-83 -768.31)" style="fill:#858585"/><path d="M214.63,900.8a2.59,2.59,0,0,1-2.19-1.2,22.91,22.91,0,0,1-3.13-8.92,15.58,15.58,0,0,1-12.29,0,23.16,23.16,0,0,1-3,8.68,2.59,2.59,0,1,1-4.42-2.72c1.5-2.43,2.38-5.89,2.63-10.29a2.6,2.6,0,0,1,4.1-2,11,11,0,0,0,13.62,0,2.59,2.59,0,0,1,4.09,2c.26,4.5,1.18,8,2.74,10.46a2.6,2.6,0,0,1-2.18,4" transform="translate(-83 -768.31)" style="fill:#858585"/><path d="M234.9,933H171.58a2.6,2.6,0,0,1-2.6-2.6V916.11a20.27,20.27,0,0,1,20.24-20.24,2.6,2.6,0,0,1,1.63.57l11.16,9a2,2,0,0,0,2.45,0l11.16-9a2.6,2.6,0,0,1,1.63-.57,20.27,20.27,0,0,1,20.24,20.24v14.27a2.6,2.6,0,0,1-2.6,2.6m-60.73-5.19H232.3V916.11a15.07,15.07,0,0,0-14.17-15l-10.41,8.39a7.15,7.15,0,0,1-9,0l-10.41-8.39a15.07,15.07,0,0,0-14.17,15Z" transform="translate(-83 -768.31)" style="fill:#858585"/></g><g style="clip-path:url(#cf)"><rect x="98.7" y="784.16" width="207.03" height="205.24" transform="translate(-228.33 -722.05) rotate(-9.62)" style="fill:url(#cg)"/></g></svg>