<svg xmlns="http://www.w3.org/2000/svg" xmlns:xlink="http://www.w3.org/1999/xlink" viewBox="0 0 238.41 236.94"><defs><clipPath id="a" transform="translate(-459.77 -138.3)"><rect width="1200" height="1200" style="fill:none"/></clipPath><clipPath id="b" transform="translate(-459.77 -138.3)"><path d="M559,282.21a1.48,1.48,0,0,0,0,3h43.22a1.48,1.48,0,0,0,0-3Z" style="fill:none"/></clipPath><linearGradient id="c" y1="1200" x2="1" y2="1200" gradientTransform="matrix(46.18, 0, 0, -46.18, 97.77, 55562.2)" gradientUnits="userSpaceOnUse"><stop offset="0" stop-color="#7bd8a0"/><stop offset="1" stop-color="#8fffba"/></linearGradient><clipPath id="d" transform="translate(-459.77 -138.3)"><path d="M558.21,283.69a.8.8,0,0,1,.8-.8h43.22a.8.8,0,1,1,0,1.6H559a.8.8,0,0,1-.8-.8m.8-2.16a2.15,2.15,0,0,0,0,4.31h43.22a2.15,2.15,0,0,0,0-4.31Z" style="fill:none"/></clipPath><linearGradient id="e" x1="0" y1="1200" x2="1" y2="1200" gradientTransform="matrix(47.53, 0, 0, -47.53, 97.09, 57185.5)" xlink:href="#c"/><clipPath id="f" transform="translate(-459.77 -138.3)"><path d="M559,271a1.48,1.48,0,0,0,0,3h43.22a1.48,1.48,0,0,0,0-3Z" style="fill:none"/></clipPath><linearGradient id="g" x1="0" y1="1200" x2="1" y2="1200" gradientTransform="matrix(46.18, 0, 0, -46.18, 97.77, 55551.01)" xlink:href="#c"/><clipPath id="h" transform="translate(-459.77 -138.3)"><path d="M558.21,272.5a.8.8,0,0,1,.8-.8h43.22a.8.8,0,0,1,0,1.6H559a.8.8,0,0,1-.8-.8m.8-2.16a2.15,2.15,0,0,0,0,4.31h43.22a2.15,2.15,0,0,0,0-4.31Z" style="fill:none"/></clipPath><linearGradient id="i" x1="0" y1="1200" x2="1" y2="1200" gradientTransform="matrix(47.53, 0, 0, -47.53, 97.09, 57174.32)" xlink:href="#c"/><clipPath id="j" transform="translate(-459.77 -138.3)"><path d="M565.73,169.2a88.82,88.82,0,1,0,29.68,175.15,89.21,89.21,0,0,0,64.52-47.68,8.22,8.22,0,0,0-14.68-7.39,72.72,72.72,0,0,1-52.59,38.87,72.39,72.39,0,1,1,59.28-83.47,8.22,8.22,0,1,0,16.2-2.74,88.87,88.87,0,0,0-87.38-74,89.93,89.93,0,0,0-15,1.27" style="fill:none"/></clipPath><linearGradient id="k" x1="0" y1="1200" x2="1" y2="1200" gradientTransform="matrix(177.65, 0, 0, -177.65, 491.74, 213433.17)" xlink:href="#c"/><clipPath id="l" transform="translate(-459.77 -138.3)"><path d="M594.56,229.59l-7.19,24.73L580,239.77a2,2,0,0,0-3.63.18l-4.88,12.64H558.85a2,2,0,1,0,0,4h14a2,2,0,0,0,1.86-1.27l3.77-9.75,7.65,15.05a2,2,0,0,0,1.77,1.09h.19a2,2,0,0,0,1.73-1.42l6.33-21.77,3.78,18.82a2,2,0,0,0,2,1.6h29a2,2,0,1,0,0-4H603.48l-5.05-25.18a2,2,0,0,0-1.87-1.6h-.08a2,2,0,0,0-1.92,1.43" style="fill:none"/></clipPath><linearGradient id="m" x1="0" y1="1200.02" x2="1" y2="1200.02" gradientTransform="matrix(74.61, 0, 0, -74.61, 555.8, 89773.51)" xlink:href="#c"/></defs><title>historial</title><g style="clip-path:url(#a)"><path d="M608.57,301.8H550.4a6.22,6.22,0,0,1-6.22-6.22V224.46a6.22,6.22,0,0,1,6.22-6.22h15.66l.23,4h27l-.06-4h15.31a6.22,6.22,0,0,1,6.22,6.22v71.12a6.22,6.22,0,0,1-6.22,6.22" transform="translate(-459.77 -138.3)" style="fill:#858585"/><path d="M607.67,216H594.86v-5a1.48,1.48,0,0,0-1.48-1.48H566.61a1.48,1.48,0,0,0-1.48,1.48v5h-12.8a8.84,8.84,0,0,0-8.84,8.83v70.46a8.84,8.84,0,0,0,8.84,8.83h55.33a8.84,8.84,0,0,0,8.83-8.83V224.79a8.84,8.84,0,0,0-8.83-8.83m-39.58-3.55h23.81v8.2H568.09Zm45.45,82.84a5.88,5.88,0,0,1-5.87,5.88H552.34a5.88,5.88,0,0,1-5.88-5.88V224.79a5.88,5.88,0,0,1,5.88-5.88h12.8v3.18a1.48,1.48,0,0,0,1.48,1.48h26.77a1.48,1.48,0,0,0,1.48-1.48v-3.18h12.81a5.88,5.88,0,0,1,5.87,5.88Z" transform="translate(-459.77 -138.3)" style="fill:#858585"/><path d="M607.67,304.76H552.34a9.52,9.52,0,0,1-9.51-9.51V224.79a9.52,9.52,0,0,1,9.51-9.51h12.12v-4.35a2.16,2.16,0,0,1,2.16-2.15h26.77a2.16,2.16,0,0,1,2.16,2.15v4.35h12.13a9.52,9.52,0,0,1,9.5,9.51v70.46a9.52,9.52,0,0,1-9.5,9.51m-55.34-88.13a8.17,8.17,0,0,0-8.16,8.16v70.46a8.17,8.17,0,0,0,8.16,8.16h55.34a8.16,8.16,0,0,0,8.15-8.16V224.79a8.16,8.16,0,0,0-8.15-8.16H594.19v-5.7a.8.8,0,0,0-.8-.8H566.61a.8.8,0,0,0-.8.8v5.7Zm55.34,85.17H552.34a6.56,6.56,0,0,1-6.55-6.55V224.79a6.56,6.56,0,0,1,6.55-6.55h13.48v3.85a.8.8,0,0,0,.8.8h26.77a.8.8,0,0,0,.8-.8v-3.85h13.48a6.56,6.56,0,0,1,6.55,6.55v70.46a6.56,6.56,0,0,1-6.55,6.55m-55.34-82.21a5.21,5.21,0,0,0-5.2,5.2v70.46a5.21,5.21,0,0,0,5.2,5.2h55.34a5.2,5.2,0,0,0,5.19-5.2V224.79a5.2,5.2,0,0,0-5.19-5.2H595.54v2.5a2.16,2.16,0,0,1-2.16,2.16H566.61a2.16,2.16,0,0,1-2.16-2.16v-2.5Zm40.25,1.7H567.42v-9.56h25.17Zm-23.81-1.35h22.46v-6.85H568.77Z" transform="translate(-459.77 -138.3)" style="fill:#858585"/></g><g style="clip-path:url(#b)"><rect x="97.77" y="143.9" width="46.18" height="2.97" style="fill:url(#c)"/></g><g style="clip-path:url(#d)"><rect x="97.09" y="143.22" width="47.53" height="4.32" style="fill:url(#e)"/></g><g style="clip-path:url(#f)"><rect x="97.77" y="132.71" width="46.18" height="2.97" style="fill:url(#g)"/></g><g style="clip-path:url(#h)"><rect x="97.09" y="132.04" width="47.53" height="4.32" style="fill:url(#i)"/></g><g style="clip-path:url(#j)"><rect x="475.46" y="154.15" width="207.03" height="205.24" transform="translate(-494.53 -37.95) rotate(-9.62)" style="fill:url(#k)"/></g><g style="clip-path:url(#l)"><rect x="554.59" y="222.04" width="80.54" height="45.77" transform="translate(-492.33 -35.46) rotate(-9.62)" style="fill:url(#m)"/></g></svg>