<svg id="Capa_1" data-name="Capa 1" xmlns="http://www.w3.org/2000/svg" xmlns:xlink="http://www.w3.org/1999/xlink" viewBox="0 0 979.2 612"><defs><style>.cls-1{fill:none;}.cls-2{clip-path:url(#clip-path);}.cls-3{fill:url(#Degradado_sin_nombre_2);}.cls-4{clip-path:url(#clip-path-2);}.cls-5{fill:#868686;}</style><clipPath id="clip-path"><path class="cls-1" d="M552.76,306.7a49.4,49.4,0,0,0,92,24.3,1.06,1.06,0,0,0-.92-1.59H628.21a1.07,1.07,0,0,0-.76.31A34.66,34.66,0,1,1,636.91,298H615.15V286.16a1.07,1.07,0,0,0-1.06-1.06H600.45a1.06,1.06,0,0,0-1.06,1.06V298H587.55a1.05,1.05,0,0,0-1.06,1.06V312.7a1.05,1.05,0,0,0,1.06,1.06h11.84V325.6a1.06,1.06,0,0,0,1.06,1.06h13.64a1.07,1.07,0,0,0,1.06-1.06V313.76H650a1.07,1.07,0,0,0,1.06-.91,49.4,49.4,0,1,0-98.32-6.15"/></clipPath><linearGradient id="Degradado_sin_nombre_2" y1="612" x2="1" y2="612" gradientTransform="matrix(96.67, 0, 0, -96.67, 562.12, 59468.13)" gradientUnits="userSpaceOnUse"><stop offset="0" stop-color="#00d99e"/><stop offset="1" stop-color="#00ffb8"/></linearGradient><clipPath id="clip-path-2"><rect class="cls-1" width="979.2" height="612"/></clipPath></defs><title>logo</title><rect class="cls-1" width="979.2" height="612"/><g class="cls-2"><rect class="cls-3" x="536.25" y="240.34" width="131.42" height="131.51" transform="translate(71.96 724.62) rotate(-65.25)"/></g><g class="cls-4"><path class="cls-5" d="M436.45,354.3h13.42a1.17,1.17,0,0,0,1.17-1.17V290.78a.21.21,0,0,1,.41-.08l26.79,62.77a1.17,1.17,0,0,0,1.08.71H493.8a1.17,1.17,0,0,0,1.08-.73L521.71,288a.21.21,0,0,1,.41.08v64.9a1.17,1.17,0,0,0,1.16,1.17H536.7a1.17,1.17,0,0,0,1.17-1.17v-95a1.17,1.17,0,0,0-1.17-1.17H518.25a1.16,1.16,0,0,0-1.08.72l-30.51,74.35a.1.1,0,0,1-.19,0l-31.64-74.35a1.17,1.17,0,0,0-1.08-.72h-17.3a1.18,1.18,0,0,0-1.17,1.17v95.23a1.17,1.17,0,0,0,1.17,1.17"/><path class="cls-5" d="M243.76,256.72a1.06,1.06,0,0,1,1.06,1.07v56.85q0,13,5.74,19.35t16.11,6.36q10.21,0,16-6.36t5.74-19.35V257.79a1.07,1.07,0,0,1,1.07-1.07h13.62a1.07,1.07,0,0,1,1.07,1.07v56.85q0,20.06-10.37,30.35t-27.37,10.29q-16.87,0-27.1-10.29t-10.23-30.35V257.79a1.07,1.07,0,0,1,1.07-1.07Z"/><path class="cls-5" d="M419.34,354.3H405.71a1.07,1.07,0,0,1-1.07-1.06V257.78a1.06,1.06,0,0,1,1.07-1.06h13.63a1.05,1.05,0,0,1,1.06,1.06v95.46a1.06,1.06,0,0,1-1.06,1.06"/><path class="cls-5" d="M744.12,331.15a41.49,41.49,0,0,1-17.55,17.07Q715,354.29,699,354.3H667.45a1.07,1.07,0,0,1-1.07-1.07V257.79a1.07,1.07,0,0,1,1.07-1.07H699q16,0,27.57,6a41.24,41.24,0,0,1,17.55,16.93q6,10.92,6,25.71t-6,25.78m-19.41-.21q9.39-9.12,9.39-25.57t-9.39-25.57q-9.4-9.12-27-9.12H682.53a.4.4,0,0,0-.4.4v68.59a.4.4,0,0,0,.4.4h15.22q17.55,0,27-9.13"/><path class="cls-5" d="M379.35,303.25A26.33,26.33,0,0,0,387.69,284v-.84a26.43,26.43,0,0,0-26.43-26.43H334.84v0H320.07a1.07,1.07,0,0,0-1.07,1.07v95.93a1.07,1.07,0,0,0,1.07,1.07h14.77v0h27.94c15.06,0,27.31-12.65,27.31-28.2v-.92a28.51,28.51,0,0,0-10.74-22.4m-18.09-33.51a13.43,13.43,0,0,1,13.43,13.43V284a13.43,13.43,0,0,1-13.43,13.43H335.91a1.07,1.07,0,0,1-1.07-1.07V270.81a1.07,1.07,0,0,1,1.07-1.07Zm15.83,56.83c0,8.38-6.42,15.2-14.31,15.2H335.91a1.07,1.07,0,0,1-1.07-1.07V311.52a1.07,1.07,0,0,1,1.07-1.08h26.87c7.89,0,14.31,6.82,14.31,15.21Z"/></g></svg>