<svg xmlns="http://www.w3.org/2000/svg" xmlns:xlink="http://www.w3.org/1999/xlink" viewBox="0 0 230.43 229.01"><defs><clipPath id="a" transform="translate(-833.09 -463.01)"><rect width="1200" height="1200" style="fill:none"/></clipPath><clipPath id="b" transform="translate(-833.09 -463.01)"><path d="M912.72,551.14a3.46,3.46,0,0,0-.16,4.88l5.73,6.12a3.45,3.45,0,1,0,5-4.72l-5.73-6.12a3.45,3.45,0,0,0-4.88-.16" style="fill:none"/></clipPath><linearGradient id="c" y1="1199.99" x2="1" y2="1199.99" gradientTransform="matrix(12.64, 0, 0, -12.64, 78.53, 15256.86)" gradientUnits="userSpaceOnUse"><stop offset="0" stop-color="#7bd8a0"/><stop offset="1" stop-color="#8fffba"/></linearGradient><clipPath id="d" transform="translate(-833.09 -463.01)"><path d="M981,551.31l-5.73,6.12a3.45,3.45,0,1,0,5,4.72l5.73-6.12a3.45,3.45,0,1,0-5-4.72" style="fill:none"/></clipPath><linearGradient id="e" y1="1199.99" y2="1199.99" gradientTransform="matrix(12.64, 0, 0, -12.64, 141.25, 15256.08)" xlink:href="#c"/><clipPath id="f" transform="translate(-833.09 -463.01)"><path d="M945.15,536.06v10.08a3.46,3.46,0,1,0,6.91,0V536.06a3.46,3.46,0,1,0-6.91,0" style="fill:none"/></clipPath><linearGradient id="g" y1="1200" y2="1200" gradientTransform="matrix(6.91, 0, 0, -6.91, 112.06, 8369.45)" xlink:href="#c"/><clipPath id="h" transform="translate(-833.09 -463.01)"><path d="M945.73,573.31A14,14,0,0,0,935,584a2.37,2.37,0,0,0,2.3,2.87h.44a2.35,2.35,0,0,0,2.33-1.8,8.76,8.76,0,0,1,6.59-6.71,2.41,2.41,0,0,0,2-2.31v-.49a2.36,2.36,0,0,0-2.37-2.35,2.47,2.47,0,0,0-.5.05" style="fill:none"/></clipPath><linearGradient id="i" y1="1200" y2="1200" gradientTransform="matrix(13.66, 0, 0, -13.66, 101.85, 16509.04)" xlink:href="#c"/><clipPath id="j" transform="translate(-833.09 -463.01)"><path d="M935.52,492.88a85.85,85.85,0,1,0,28.69,169.29,86.23,86.23,0,0,0,62.36-46.08,7.94,7.94,0,1,0-14.19-7.14,70.29,70.29,0,0,1-50.83,37.57,70,70,0,1,1,57.29-80.67,7.94,7.94,0,0,0,15.66-2.65A85.9,85.9,0,0,0,950,491.65a86.93,86.93,0,0,0-14.53,1.23" style="fill:none"/></clipPath><linearGradient id="k" y1="1200" y2="1200" gradientTransform="matrix(171.7, 0, 0, -171.7, 863.97, 206617.92)" xlink:href="#c"/></defs><title>notificaciones</title><g style="clip-path:url(#a)"><path d="M924.26,619h50.09l-1.64-36.48s-1.87-17-25.27-19.25c0,0-26.64-7.94-23.18,55.73" transform="translate(-833.09 -463.01)" style="fill:#858585"/><path d="M982.35,622.42h-66.1a3.45,3.45,0,1,1,0-6.91h66.1a3.45,3.45,0,0,1,0,6.91" transform="translate(-833.09 -463.01)" style="fill:#858585"/><path d="M976.54,622.42H922.07V587a27.23,27.23,0,0,1,54.47,0ZM929,615.52h40.65V587A20.32,20.32,0,0,0,929,587Z" transform="translate(-833.09 -463.01)" style="fill:#858585"/></g><g style="clip-path:url(#b)"><rect x="78.16" y="87.2" width="13.38" height="13.4" style="fill:url(#c)"/></g><g style="clip-path:url(#d)"><rect x="140.88" y="87.2" width="13.38" height="13.4" style="fill:url(#e)"/></g><g style="clip-path:url(#f)"><rect x="112.06" y="69.59" width="6.91" height="16.99" style="fill:url(#g)"/></g><g style="clip-path:url(#h)"><rect x="101.59" y="110.25" width="13.92" height="13.66" style="fill:url(#i)"/></g><g style="clip-path:url(#j)"><rect x="848.26" y="478.33" width="200.1" height="198.37" transform="translate(-916.26 -296.44) rotate(-9.62)" style="fill:url(#k)"/></g></svg>