<svg xmlns="http://www.w3.org/2000/svg" xmlns:xlink="http://www.w3.org/1999/xlink" viewBox="0 0 238.41 236.94"><defs><clipPath id="a" transform="translate(-459.77 -768.31)"><path d="M565.73,799.21a88.82,88.82,0,1,0,29.68,175.15,89.21,89.21,0,0,0,64.52-47.68,8.22,8.22,0,1,0-14.68-7.39,72.72,72.72,0,0,1-52.59,38.87,72.39,72.39,0,1,1,59.28-83.47,8.22,8.22,0,0,0,16.2-2.75,88.88,88.88,0,0,0-87.38-74,89.91,89.91,0,0,0-15,1.27" style="fill:none"/></clipPath><linearGradient id="b" y1="1200" x2="1" y2="1200" gradientTransform="matrix(177.65, 0, 0, -177.65, 491.71, 214063.18)" gradientUnits="userSpaceOnUse"><stop offset="0" stop-color="#0fd89e"/><stop offset="1" stop-color="#00ffb7"/></linearGradient><clipPath id="c" transform="translate(-459.77 -768.31)"><path d="M600.21,877.14a18.8,18.8,0,1,1,18.8,18.8,18.82,18.82,0,0,1-18.8-18.8m-4.9,0a23.7,23.7,0,1,0,23.7-23.7,23.73,23.73,0,0,0-23.7,23.7" style="fill:none"/></clipPath><linearGradient id="d" y1="1200" y2="1200" gradientTransform="matrix(47.4, 0, 0, -47.4, 135.53, 56990.96)" xlink:href="#b"/><clipPath id="e" transform="translate(-459.77 -768.31)"><path d="M616.55,869v5.72h-5.72a2.45,2.45,0,1,0,0,4.9h5.72v5.72a2.45,2.45,0,0,0,4.91,0v-5.72h5.72a2.45,2.45,0,0,0,0-4.9h-5.72V869a2.45,2.45,0,0,0-4.91,0" style="fill:none"/></clipPath><linearGradient id="f" y1="1200" y2="1200" gradientTransform="matrix(21.25, 0, 0, -21.25, 148.61, 25607.72)" xlink:href="#b"/><clipPath id="g" transform="translate(-459.77 -768.31)"><rect width="1200" height="1200" style="fill:none"/></clipPath><clipPath id="h" transform="translate(-459.77 -768.31)"><path d="M547.58,868.09a14.77,14.77,0,1,0,14.77-14.77,14.77,14.77,0,0,0-14.77,14.77" style="fill:none"/></clipPath><linearGradient id="i" y1="1200" x2="1" y2="1200" gradientTransform="matrix(29.54, 0, 0, -29.54, 87.81, 35542.33)" gradientUnits="userSpaceOnUse"><stop offset="0" stop-color="#7bd69e"/><stop offset="1" stop-color="#8cffb8"/></linearGradient></defs><title>solicitudes</title><g style="clip-path:url(#a)"><rect x="475.46" y="784.16" width="207.03" height="205.24" transform="translate(-599.8 -659.1) rotate(-9.62)" style="fill:url(#b)"/></g><g style="clip-path:url(#c)"><rect x="135.53" y="85.13" width="47.4" height="47.4" style="fill:url(#d)"/></g><g style="clip-path:url(#e)"><rect x="148.61" y="98.2" width="21.25" height="21.25" style="fill:url(#f)"/></g><g style="clip-path:url(#g)"><path d="M528.1,924.3l69.24-.66s-5.12-21.51-36.34-21.27c0,0-24.22-2-32.9,21.94" transform="translate(-459.77 -768.31)" style="fill:#838383"/></g><g style="clip-path:url(#h)"><rect x="87.81" y="85.02" width="29.53" height="29.54" style="fill:url(#i)"/></g><g style="clip-path:url(#g)"><path d="M562.35,889.92a21.82,21.82,0,1,1,21.82-21.82,21.85,21.85,0,0,1-21.82,21.82m0-34.92a13.09,13.09,0,1,0,13.09,13.09A13.11,13.11,0,0,0,562.35,855" transform="translate(-459.77 -768.31)" style="fill:#838383"/><path d="M528.31,924.37a3.82,3.82,0,0,1-3.27-5.8l3-4.93a33.33,33.33,0,0,1,28.41-16.06H569.1a33,33,0,0,1,30.84,21,3.82,3.82,0,1,1-7.11,2.81,25.37,25.37,0,0,0-23.73-16.14H556.42a25.65,25.65,0,0,0-21.86,12.36l-3,4.93a3.82,3.82,0,0,1-3.28,1.85" transform="translate(-459.77 -768.31)" style="fill:#838383"/></g></svg>