<svg xmlns="http://www.w3.org/2000/svg" xmlns:xlink="http://www.w3.org/1999/xlink" viewBox="0 0 532.05 236.94"><defs><clipPath id="a" transform="translate(-85.75 -455.14)"><rect width="1200" height="1200" style="fill:none"/></clipPath><clipPath id="b" transform="translate(-85.75 -455.14)"><path d="M187.8,554.57s7.44-10,15-9.09a28.05,28.05,0,0,0,22.68,9.74s2.48-19.2-15.8-21.13c0,0-.71-.07-1.87-.07-5.55,0-21.5,1.63-20,20.55" style="fill:none"/></clipPath><linearGradient id="c" y1="1199.99" x2="1" y2="1199.99" gradientTransform="matrix(37.86, 0, 0, -37.86, 101.95, 45522.78)" gradientUnits="userSpaceOnUse"><stop offset="0" stop-color="#7bd8a0"/><stop offset="1" stop-color="#8fffba"/></linearGradient><clipPath id="d" transform="translate(-85.75 -455.14)"><path d="M191.72,486A88.82,88.82,0,1,0,221.4,661.19a89.22,89.22,0,0,0,64.52-47.68,8.22,8.22,0,1,0-14.68-7.39A72.72,72.72,0,0,1,218.65,645a72.39,72.39,0,1,1,59.28-83.47,8.22,8.22,0,0,0,16.2-2.75,88.88,88.88,0,0,0-87.38-74,89.91,89.91,0,0,0-15,1.27" style="fill:none"/></clipPath><linearGradient id="e" y1="1200" y2="1200" gradientTransform="matrix(177.65, 0, 0, -177.65, 117.66, 213750.01)" xlink:href="#c"/><linearGradient id="g" y1="1200" y2="1200" gradientTransform="matrix(65.69, 0, 0, -65.69, 552.6, 79401.79)" xlink:href="#c"/><clipPath id="h" transform="translate(-85.75 -455.14)"><path d="M202,582.62h0" style="fill:none"/></clipPath><linearGradient id="i" y1="1200" y2="1200" gradientTransform="matrix(15.69, 0, 0, -15.69, 110.49, 18954.39)" xlink:href="#c"/><clipPath id="j" transform="translate(-85.75 -455.14)"><path d="M196.58,578.79a5.9,5.9,0,0,0,3.22,3.33,5.78,5.78,0,0,1-3.08-3.33Z" style="fill:none"/></clipPath><linearGradient id="k" y1="1200" y2="1200" gradientTransform="matrix(15.69, 0, 0, -15.69, 110.49, 18952.22)" xlink:href="#c"/><clipPath id="m" transform="translate(-85.75 -455.14)"><path d="M211.74,576.87a5.75,5.75,0,0,1-4,5.48,5.68,5.68,0,0,0-.09-11,5.76,5.76,0,0,1,4.1,5.51" style="fill:none"/></clipPath><linearGradient id="n" y1="1200" y2="1200" gradientTransform="matrix(15.69, 0, 0, -15.69, 110.49, 18948.63)" xlink:href="#c"/><clipPath id="p" transform="translate(-85.75 -455.14)"><path d="M200.23,576.87a1.92,1.92,0,0,1,1.92-1.92H206a1.92,1.92,0,1,1,0,3.84h-3.84a1.92,1.92,0,0,1-1.92-1.92m2-5.75h-.32a6.21,6.21,0,0,0-2.24.54l-.15.07-.07,0a5.78,5.78,0,0,0-2.78,3.19h-.14a5.52,5.52,0,0,0,0,3.84h.14a5.78,5.78,0,0,0,3.08,3.33,6.2,6.2,0,0,0,2.14.49h4a6.23,6.23,0,0,0,1.82-.27,5.75,5.75,0,0,0-.09-11,6.26,6.26,0,0,0-1.73-.24Z" style="fill:none"/></clipPath><linearGradient id="q" y1="1200" y2="1200" gradientTransform="matrix(15.69, 0, 0, -15.69, 110.49, 18948.64)" xlink:href="#c"/></defs><title>soporte</title><g style="clip-path:url(#a)"><path d="M190.36,593.66l15.19,26.52H163.81s1.26-25,26.55-26.52" transform="translate(-85.75 -455.14)" style="fill:#858585"/><path d="M205.55,620.18l16.57-27s22.38,1.16,26,27Z" transform="translate(-85.75 -455.14)" style="fill:#858585"/></g><g style="clip-path:url(#b)"><rect x="100.54" y="78.88" width="41.64" height="21.85" style="fill:url(#c)"/></g><g style="clip-path:url(#d)"><rect x="101.44" y="470.99" width="207.03" height="205.24" transform="translate(-178.71 -412.83) rotate(-9.62)" style="fill:url(#e)"/></g><g style="clip-path:url(#a)"><path d="M597.83,585.22h0a3,3,0,1,0,4.5,3.82l14.77-17.42a3,3,0,0,0,0-3.82l-14.77-17.42a3,3,0,0,0-4.5,3.82l10.64,12.56H556.06a3,3,0,1,0,0,5.9h52.42l-10.64,12.56h0l10.64-12.56H556.06a3,3,0,1,1,0-5.9h52.42L597.83,554.2a3,3,0,1,1,4.5-3.82L617.1,567.8a3,3,0,0,1,0,3.82L602.33,589a3,3,0,0,1-4.5-3.82Z" transform="translate(-85.75 -455.14)" style="fill:url(#g)"/><path d="M545.16,531.92h25.66a3,3,0,0,1,0,5.91H548.11V601.6h22.71a3,3,0,0,1,0,5.91H545.16a3,3,0,0,1-3-3V534.87a3,3,0,0,1,3-3" transform="translate(-85.75 -455.14)" style="fill:#858585"/><path d="M545.16,531.92h25.66a3,3,0,0,1,0,5.91H548.11V601.6h22.71a3,3,0,0,1,0,5.91H545.16a3,3,0,0,1-3-3V534.87A3,3,0,0,1,545.16,531.92Z" transform="translate(-85.75 -455.14)" style="fill:none;stroke:#858585;stroke-miterlimit:10"/><path d="M201.94,582.62a6.21,6.21,0,0,1-2.14-.49,5.71,5.71,0,0,0,2.14.49" transform="translate(-85.75 -455.14)" style="fill:#858585"/><path d="M202.15,582.63h0" transform="translate(-85.75 -455.14)" style="fill:#858585"/><path d="M206,582.63a5.72,5.72,0,0,0,1.74-.27,6.22,6.22,0,0,1-1.82.27Z" transform="translate(-85.75 -455.14)" style="fill:#858585"/></g><g style="clip-path:url(#h)"><rect x="116.2" y="127.48" width="0.02" style="fill:url(#i)"/></g><g style="clip-path:url(#j)"><rect x="110.84" y="123.65" width="3.22" height="3.33" style="fill:url(#k)"/></g><g style="clip-path:url(#a)"><path d="M231.8,594.26l-9.12-3-3.27-6.55a21,21,0,0,0,5.69-11.11l.41-2.45H229a5.76,5.76,0,0,0,5.75-5.75V553.28a28.77,28.77,0,0,0-57.54,0v12.08a5.76,5.76,0,0,0,3.84,5.42V573a5.76,5.76,0,0,0,5.75,5.75h1.68a20.79,20.79,0,0,0,3.22,5c.27.31.56.61.85.91l-3.27,6.54-9.12,3c-10.6,3.54-18.29,14.69-18.29,26.53a1.92,1.92,0,0,0,1.92,1.92h84.39a1.92,1.92,0,0,0,1.92-1.92c0-11.84-7.69-23-18.29-26.53m-.89-28.9a1.92,1.92,0,0,1-1.92,1.92h-2.93c.49-3.78.81-7.8.94-11.75,0-.11,0-.22,0-.33h3.89ZM183,567.28a1.92,1.92,0,0,1-1.92-1.92V555.2h3.89l0,.6v0h0c.13,3.85.46,7.76.93,11.46H183ZM186.8,575a1.92,1.92,0,0,1-1.92-1.92v-1.92h1.57l.41,2.45c.08.47.17.93.28,1.39Zm-1.91-23.59h-3.77a24.93,24.93,0,0,1,49.72,0h-3.77a19.43,19.43,0,0,0-19.38-19.18h-3.43a19.42,19.42,0,0,0-19.38,19.18M204.27,536h3.43a15.6,15.6,0,0,1,15.55,15.61c0,.6,0,1.13,0,1.61v0l-2.4-.34a30.81,30.81,0,0,1-17.33-8.66,1.92,1.92,0,0,0-1.36-.56A17.35,17.35,0,0,0,188.8,550a15.59,15.59,0,0,1,15.46-14M191.12,575c-1-3.19-2.06-12.59-2.3-18.61l2.58-3.44a13.5,13.5,0,0,1,10-5.35,34.69,34.69,0,0,0,18.9,9.16l2.82.4c-.19,4-.57,8-1.13,11.72h0c-.18,1.19-.31,2-.67,4.09-1,6.09-5.56,11.6-11.56,13.1a15.09,15.09,0,0,1-16.94-7.25h3.77a5.5,5.5,0,0,1,0-3.84Zm10.86,15a19.26,19.26,0,0,0,7.13.16l-3.39,3.58Zm1.11,6.53L197,602.88a73,73,0,0,1-4.29-10l2.28-4.57Zm13.55-8.74,2.61,5.22a73.19,73.19,0,0,1-4.29,10l-6.51-6.51Zm-50.86,31.17c.76-9.5,7.08-18.14,15.59-21l8.07-2.69a76.89,76.89,0,0,0,5.46,11.84v0h0a76.9,76.9,0,0,0,5.25,8l2.36,3.79Zm40.2-1.71-2.6-4.18-.09-.14A73.06,73.06,0,0,1,199,606.4l6.84-7.23,7.21,7.21a73.16,73.16,0,0,1-4.34,6.48c-.1.13,0-.07-2.7,4.31m3.45,1.71,2.36-3.79a76.53,76.53,0,0,0,5.29-8.08l0-.05h0a76.92,76.92,0,0,0,5.4-11.74l8.07,2.69c8.51,2.84,14.83,11.47,15.59,21Z" transform="translate(-85.75 -455.14)" style="fill:#858585"/><path d="M231.8,594.26l-9.12-3-3.27-6.55a21,21,0,0,0,5.69-11.11l.41-2.45H229a5.76,5.76,0,0,0,5.75-5.75V553.28a28.77,28.77,0,0,0-57.54,0v12.08a5.76,5.76,0,0,0,3.84,5.42V573a5.76,5.76,0,0,0,5.75,5.75h1.68a20.79,20.79,0,0,0,3.22,5c.27.31.56.61.85.91l-3.27,6.54-9.12,3c-10.6,3.54-18.29,14.69-18.29,26.53a1.92,1.92,0,0,0,1.92,1.92h84.39a1.92,1.92,0,0,0,1.92-1.92C250.09,609,242.4,597.8,231.8,594.26Zm-.89-28.9a1.92,1.92,0,0,1-1.92,1.92h-2.93c.49-3.78.81-7.8.94-11.75,0-.11,0-.22,0-.33h3.89ZM183,567.28a1.92,1.92,0,0,1-1.92-1.92V555.2h3.89l0,.6v0h0c.13,3.85.46,7.76.93,11.46H183ZM186.8,575a1.92,1.92,0,0,1-1.92-1.92v-1.92h1.57l.41,2.45c.08.47.17.93.28,1.39Zm-1.91-23.59h-3.77a24.93,24.93,0,0,1,49.72,0h-3.77a19.43,19.43,0,0,0-19.38-19.18h-3.43A19.42,19.42,0,0,0,184.89,551.36ZM204.27,536h3.43a15.6,15.6,0,0,1,15.55,15.61c0,.6,0,1.13,0,1.61v0l-2.4-.34a30.81,30.81,0,0,1-17.33-8.66,1.92,1.92,0,0,0-1.36-.56A17.35,17.35,0,0,0,188.8,550,15.59,15.59,0,0,1,204.27,536ZM191.12,575c-1-3.19-2.06-12.59-2.3-18.61l2.58-3.44a13.5,13.5,0,0,1,10-5.35,34.69,34.69,0,0,0,18.9,9.16l2.82.4c-.19,4-.57,8-1.13,11.72h0c-.18,1.19-.31,2-.67,4.09-1,6.09-5.56,11.6-11.56,13.1a15.09,15.09,0,0,1-16.94-7.25h3.77a5.5,5.5,0,0,1,0-3.84Zm10.86,15a19.26,19.26,0,0,0,7.13.16l-3.39,3.58Zm1.11,6.53L197,602.88a73,73,0,0,1-4.29-10l2.28-4.57Zm13.55-8.74,2.61,5.22a73.19,73.19,0,0,1-4.29,10l-6.51-6.51Zm-50.86,31.17c.76-9.5,7.08-18.14,15.59-21l8.07-2.69a76.89,76.89,0,0,0,5.46,11.84v0h0a76.9,76.9,0,0,0,5.25,8l2.36,3.79Zm40.2-1.71-2.6-4.18-.09-.14A73.06,73.06,0,0,1,199,606.4l6.84-7.23,7.21,7.21a73.16,73.16,0,0,1-4.34,6.48C208.58,613,208.72,612.78,206,617.17Zm3.45,1.71,2.36-3.79a76.53,76.53,0,0,0,5.29-8.08l0-.05h0a76.92,76.92,0,0,0,5.4-11.74l8.07,2.69c8.51,2.84,14.83,11.47,15.59,21Z" transform="translate(-85.75 -455.14)" style="fill:none;stroke:#858585;stroke-miterlimit:10"/></g><g style="clip-path:url(#m)"><rect x="121.88" y="116.22" width="4.29" height="11" style="fill:url(#n)"/></g><g style="clip-path:url(#a)"><path d="M199.81,582.12a6.2,6.2,0,0,0,2.14.49h4a6.22,6.22,0,0,0,1.82-.27,5.75,5.75,0,0,0-.09-11,6.25,6.25,0,0,0-1.73-.24h-4a6.2,6.2,0,0,0-2.24.54l-.15.07-.07,0a5.78,5.78,0,0,0-2.78,3.19h-.14a5.5,5.5,0,0,0,0,3.84h.14a5.78,5.78,0,0,0,3.08,3.33m2.34-7.17H206a1.92,1.92,0,0,1,0,3.84h-3.84a1.92,1.92,0,0,1,0-3.84" transform="translate(-85.75 -455.14)" style="fill:#858585"/></g><g style="clip-path:url(#p)"><rect x="110.49" y="115.98" width="15.5" height="11.51" style="fill:url(#q)"/></g></svg>