<svg xmlns="http://www.w3.org/2000/svg" xmlns:xlink="http://www.w3.org/1999/xlink" viewBox="0 0 238.41 236.94"><defs><clipPath id="a" transform="translate(-823.41 -139.38)"><rect width="1200" height="1200" style="fill:none"/></clipPath><clipPath id="b" transform="translate(-823.41 -139.38)"><path d="M957.13,238.59a11,11,0,0,0-.43,5.6l1.88-.8.24-.68s5.06.59,8.61-2.25l2.46,2.72,1.66.78s.35-3.94-.86-6.16c0,0-1.39-3.43-6.5-3.79h0a8.25,8.25,0,0,0-7.06,4.59" style="fill:none"/></clipPath><linearGradient id="c" y1="1200" x2="1" y2="1200" gradientTransform="matrix(15.1, 0, 0, -15.1, 133.09, 18219.37)" gradientUnits="userSpaceOnUse"><stop offset="0" stop-color="#7bd8a0"/><stop offset="1" stop-color="#8fffba"/></linearGradient><clipPath id="e" transform="translate(-823.41 -139.38)"><path d="M929.38,170.29a88.82,88.82,0,1,0,29.68,175.15,89.22,89.22,0,0,0,64.52-47.68,8.22,8.22,0,0,0-14.68-7.39,72.72,72.72,0,0,1-52.59,38.87,72.39,72.39,0,1,1,59.27-83.47,8.22,8.22,0,0,0,16.2-2.75,88.88,88.88,0,0,0-87.38-74,89.92,89.92,0,0,0-15,1.27" style="fill:none"/></clipPath><linearGradient id="f" y1="1200" y2="1200" gradientTransform="matrix(177.65, 0, 0, -177.65, 855.39, 213434.26)" xlink:href="#c"/><clipPath id="h" transform="translate(-823.41 -139.38)"><path d="M922.73,260.19v-8.35c.08,0,.08.08.23.15l5.39,3.87c.08,0,.15.15.15.23a.4.4,0,0,1-.22.3l-5.39,3.87a.27.27,0,0,0-.15.07Zm-.69-9.71a1.58,1.58,0,0,0-.83,1.52v8.19a1.66,1.66,0,0,0,.83,1.52,2.27,2.27,0,0,0,.68.15,1.49,1.49,0,0,0,1.06-.46l5.39-3.87A1.84,1.84,0,0,0,930,256a1.81,1.81,0,0,0-.83-1.43l-5.39-3.87a2,2,0,0,0-1.11-.39,1.26,1.26,0,0,0-.64.16" style="fill:none"/></clipPath><linearGradient id="i" y1="1200" y2="1200" gradientTransform="matrix(8.8, 0, 0, -8.8, 97.8, 10678.77)" xlink:href="#c"/></defs><title>videoconsulta</title><g style="clip-path:url(#a)"><path d="M958.93,255.69l-6.55,2.68a5.48,5.48,0,0,0-2.53,3.84v8.11h3.91a1.15,1.15,0,0,1,1.27,1.38l-.07,5.72h18.82l-.18-6.09s-.22-1,1.12-1.11l3.91.07v-8.83a5.13,5.13,0,0,0-3.84-3.8l-5.14-2a5.78,5.78,0,0,1-6.12,3.12s-4-.51-4.6-3.12" transform="translate(-823.41 -139.38)" style="fill:#858585"/><path d="M931.25,291l-1.88,13.9h29.39l-1.69-14.53-7.93.63s.26,6.45-3.6,7.39c0,0-5.71,2-6.54-7.39Z" transform="translate(-823.41 -139.38)" style="fill:#858585"/></g><g style="clip-path:url(#b)"><rect x="132.65" y="94.62" width="15.84" height="10.18" style="fill:url(#c)"/></g><g style="clip-path:url(#a)"><path d="M968.84,269.48a.83.83,0,0,0,.71,0C971.3,268.64,973,267,973,265a5.39,5.39,0,0,0-7.62,0c0,2.09,1.79,3.68,3.46,4.47m-.43-4.93a.94.94,0,0,0,.8.44.93.93,0,0,0,.75-.44.92.92,0,0,1,1.73.45c0,1.41-1.27,2.54-2.5,3.19-1.25-.64-2.5-1.78-2.5-3.18a.92.92,0,0,1,1.73-.46" transform="translate(-823.41 -139.38)"/><path d="M965.14,277.47a.66.66,0,0,0,.66.66h11.88a1.68,1.68,0,0,0,1.67-1.67v-10a.66.66,0,0,0-1.31,0v3.16h-3.42a1.68,1.68,0,0,0-1.67,1.67v5.5h-7.15a.66.66,0,0,0-.66.66m9.12-6.15a.36.36,0,0,1,.36-.36H978v5.5a.36.36,0,0,1-.36.36h-3.42Z" transform="translate(-823.41 -139.38)" style="fill:#858585"/><path d="M979.35,262.79a5.85,5.85,0,0,0-3.46-5.35h0l-7.84-3v-1.84a6.15,6.15,0,0,0,2.33-4.07,2.93,2.93,0,0,0,2.63-2.77,2.61,2.61,0,0,0-.68-1.73v-2.51a8.13,8.13,0,1,0-16.25,0v2.57a2.51,2.51,0,0,0-.68,1.68A2.93,2.93,0,0,0,958,248.5a6.08,6.08,0,0,0,2.46,4.16v1.74l-7.84,3a5.85,5.85,0,0,0-3.46,5.35v13.66a1.68,1.68,0,0,0,1.67,1.67h11.88a.66.66,0,0,0,0-1.31h-7.15v-5.5a1.68,1.68,0,0,0-1.67-1.67h-3.42v-6.85a4.55,4.55,0,0,1,2.64-4.13l5.45-2.11c.92,2,3.53,2.94,5.67,2.94s4.76-1,5.67-2.94l5.46,2.11a4.58,4.58,0,0,1,2.64,4.13v.63a.66.66,0,0,0,1.31,0ZM950.49,271h3.42a.36.36,0,0,1,.36.36v5.5h-3.42a.36.36,0,0,1-.36-.36Zm21.19-25.22a1.59,1.59,0,0,1-1.27,1.42v-2.84a1.58,1.58,0,0,1,1.27,1.42M958,247.16a1.59,1.59,0,0,1-1.27-1.42,1.65,1.65,0,0,1,1.27-1.38Zm0-4.16a3.42,3.42,0,0,0-.62.17v-1.68a6.81,6.81,0,1,1,13.63,0v1.64a3.36,3.36,0,0,0-.59-.15,1.61,1.61,0,0,0,0-.39c-.09-.34-.44-.66-2-2.31a1.17,1.17,0,0,0-1.55-.25,12.64,12.64,0,0,1-7.64,2.06A1.17,1.17,0,0,0,958,243m1.29,4.72v-4.3a14,14,0,0,0,8.19-2.21c.94,1,1.46,1.55,1.63,1.76v4.76a4.84,4.84,0,0,1-4.83,4.83h0a4.86,4.86,0,0,1-5-4.83m7.44,5.63v1.26a3.36,3.36,0,0,1-4.93,0v-1.22a6.7,6.7,0,0,0,2.48.47,6.16,6.16,0,0,0,2.45-.51m-6,3.72a2.69,2.69,0,0,1-.87-1l1.14-.44a4.68,4.68,0,0,0,6.61,0l1.14.44c-.94,1.85-4.95,3.13-8,1" transform="translate(-823.41 -139.38)" style="fill:#858585"/></g><g style="clip-path:url(#e)"><rect x="839.1" y="155.24" width="207.03" height="205.24" transform="translate(-853.24 21.74) rotate(-9.62)" style="fill:url(#f)"/></g><g style="clip-path:url(#a)"><path d="M989.67,218.82h-91a6.4,6.4,0,0,0-6.4,6.4V287a6.4,6.4,0,0,0,6.4,6.4h30.79l-1.25,10H923a1.52,1.52,0,0,0,0,3h42.27a1.52,1.52,0,1,0,0-3h-5.16l-1.25-10h30.79a6.4,6.4,0,0,0,6.4-6.4V225.22a6.4,6.4,0,0,0-6.4-6.4m-32.61,84.53H931.25l1.24-10h5.6l.55,2.2a5.69,5.69,0,0,0,11,0l.55-2.2h5.6Zm-15.84-10h5.86l-.37,1.46a2.64,2.64,0,0,1-5.13,0ZM993,287a3.36,3.36,0,0,1-3.36,3.36h-91a3.36,3.36,0,0,1-3.35-3.36V225.22a3.36,3.36,0,0,1,3.35-3.36h91a3.36,3.36,0,0,1,3.36,3.36Z" transform="translate(-823.41 -139.38)" style="fill:#858585"/><path d="M990.64,221.23H897.91a3.42,3.42,0,0,0-3.42,3.42v62.92a3.42,3.42,0,0,0,3.42,3.42h92.73a3.42,3.42,0,0,0,3.42-3.42V224.65a3.42,3.42,0,0,0-3.42-3.42m-3.2,60.19a2.94,2.94,0,0,1-2.94,2.94H904.06a2.94,2.94,0,0,1-2.94-2.94V230.79a2.94,2.94,0,0,1,2.94-2.94h80.44a2.94,2.94,0,0,1,2.94,2.94Z" transform="translate(-823.41 -139.38)" style="fill:#858585"/><path d="M938.13,256.07a13.49,13.49,0,1,1-13.49-13.49,13.49,13.49,0,0,1,13.49,13.49" transform="translate(-823.41 -139.38)" style="fill:#858585"/></g><g style="clip-path:url(#h)"><rect x="97.8" y="110.94" width="8.8" height="11.54" style="fill:url(#i)"/></g></svg>